<svg width="1152" height="288" viewBox="0 0 1152 288" fill="none" xmlns="http://www.w3.org/2000/svg">
<path d="M233.1 276.038V278.342H215.28V253.142H232.56V255.446H217.944V264.41H230.976V266.678H217.944V276.038H233.1ZM238.822 259.406H241.378V278.342H238.822V259.406ZM240.118 255.266C239.59 255.266 239.146 255.086 238.786 254.726C238.426 254.366 238.246 253.934 238.246 253.43C238.246 252.95 238.426 252.53 238.786 252.17C239.146 251.81 239.59 251.63 240.118 251.63C240.646 251.63 241.09 251.81 241.45 252.17C241.81 252.506 241.99 252.914 241.99 253.394C241.99 253.922 241.81 254.366 241.45 254.726C241.09 255.086 240.646 255.266 240.118 255.266ZM258.138 259.262C260.514 259.262 262.398 259.958 263.79 261.35C265.206 262.718 265.914 264.722 265.914 267.362V278.342H263.358V267.614C263.358 265.646 262.866 264.146 261.882 263.114C260.898 262.082 259.494 261.566 257.67 261.566C255.63 261.566 254.01 262.178 252.81 263.402C251.634 264.602 251.046 266.27 251.046 268.406V278.342H248.49V259.406H250.938V262.898C251.634 261.746 252.594 260.858 253.818 260.234C255.066 259.586 256.506 259.262 258.138 259.262ZM279.873 268.838L275.409 272.942V278.342H272.853V251.63H275.409V269.738L286.713 259.406H289.881L281.781 267.146L290.637 278.342H287.505L279.873 268.838ZM300.747 259.262C303.219 259.262 305.115 259.886 306.435 261.134C307.755 262.358 308.415 264.182 308.415 266.606V278.342H305.967V275.39C305.391 276.374 304.539 277.142 303.411 277.694C302.307 278.246 300.987 278.522 299.451 278.522C297.339 278.522 295.659 278.018 294.411 277.01C293.163 276.002 292.539 274.67 292.539 273.014C292.539 271.406 293.115 270.11 294.267 269.126C295.443 268.142 297.303 267.65 299.847 267.65H305.859V266.498C305.859 264.866 305.403 263.63 304.491 262.79C303.579 261.926 302.247 261.494 300.495 261.494C299.295 261.494 298.143 261.698 297.039 262.106C295.935 262.49 294.987 263.03 294.195 263.726L293.043 261.818C294.003 261.002 295.155 260.378 296.499 259.946C297.843 259.49 299.259 259.262 300.747 259.262ZM299.847 276.506C301.287 276.506 302.523 276.182 303.555 275.534C304.587 274.862 305.355 273.902 305.859 272.654V269.558H299.919C296.679 269.558 295.059 270.686 295.059 272.942C295.059 274.046 295.479 274.922 296.319 275.57C297.159 276.194 298.335 276.506 299.847 276.506ZM332.421 259.406V278.342H329.973V274.886C329.301 276.038 328.377 276.938 327.201 277.586C326.025 278.21 324.681 278.522 323.169 278.522C320.697 278.522 318.741 277.838 317.301 276.47C315.885 275.078 315.177 273.05 315.177 270.386V259.406H317.733V270.134C317.733 272.126 318.225 273.638 319.209 274.67C320.193 275.702 321.597 276.218 323.421 276.218C325.413 276.218 326.985 275.618 328.137 274.418C329.289 273.194 329.865 271.502 329.865 269.342V259.406H332.421ZM345.844 253.61C344.74 253.61 343.9 253.91 343.324 254.51C342.772 255.11 342.496 255.998 342.496 257.174V259.406H348.328V261.566H342.568V278.342H340.012V261.566H336.628V259.406H340.012V257.066C340.012 255.338 340.504 253.97 341.488 252.962C342.496 251.954 343.912 251.45 345.736 251.45C346.456 251.45 347.152 251.558 347.824 251.774C348.496 251.966 349.06 252.254 349.516 252.638L348.652 254.546C347.908 253.922 346.972 253.61 345.844 253.61ZM356.855 278.522C355.319 278.522 353.843 278.306 352.427 277.874C351.035 277.418 349.943 276.854 349.151 276.182L350.303 274.166C351.095 274.79 352.091 275.306 353.291 275.714C354.491 276.098 355.739 276.29 357.035 276.29C358.763 276.29 360.035 276.026 360.851 275.498C361.691 274.946 362.111 274.178 362.111 273.194C362.111 272.498 361.883 271.958 361.427 271.574C360.971 271.166 360.395 270.866 359.699 270.674C359.003 270.458 358.079 270.254 356.927 270.062C355.391 269.774 354.155 269.486 353.219 269.198C352.283 268.886 351.479 268.37 350.807 267.65C350.159 266.93 349.835 265.934 349.835 264.662C349.835 263.078 350.495 261.782 351.815 260.774C353.135 259.766 354.971 259.262 357.323 259.262C358.547 259.262 359.771 259.43 360.995 259.766C362.219 260.078 363.227 260.498 364.019 261.026L362.903 263.078C361.343 261.998 359.483 261.458 357.323 261.458C355.691 261.458 354.455 261.746 353.615 262.322C352.799 262.898 352.391 263.654 352.391 264.59C352.391 265.31 352.619 265.886 353.075 266.318C353.555 266.75 354.143 267.074 354.839 267.29C355.535 267.482 356.495 267.686 357.719 267.902C359.231 268.19 360.443 268.478 361.355 268.766C362.267 269.054 363.047 269.546 363.695 270.242C364.343 270.938 364.667 271.898 364.667 273.122C364.667 274.778 363.971 276.098 362.579 277.082C361.211 278.042 359.303 278.522 356.855 278.522ZM369.392 251.63H371.948V278.342H369.392V251.63ZM379.06 259.406H381.616V278.342H379.06V259.406ZM380.356 255.266C379.828 255.266 379.384 255.086 379.024 254.726C378.664 254.366 378.484 253.934 378.484 253.43C378.484 252.95 378.664 252.53 379.024 252.17C379.384 251.81 379.828 251.63 380.356 251.63C380.884 251.63 381.328 251.81 381.688 252.17C382.048 252.506 382.228 252.914 382.228 253.394C382.228 253.922 382.048 254.366 381.688 254.726C381.328 255.086 380.884 255.266 380.356 255.266ZM405.216 269.666H389.376C389.52 271.634 390.276 273.23 391.644 274.454C393.012 275.654 394.74 276.254 396.828 276.254C398.004 276.254 399.084 276.05 400.068 275.642C401.052 275.21 401.904 274.586 402.624 273.77L404.064 275.426C403.224 276.434 402.168 277.202 400.896 277.73C399.648 278.258 398.268 278.522 396.756 278.522C394.812 278.522 393.084 278.114 391.572 277.298C390.084 276.458 388.92 275.306 388.08 273.842C387.24 272.378 386.82 270.722 386.82 268.874C386.82 267.026 387.216 265.37 388.008 263.906C388.824 262.442 389.928 261.302 391.32 260.486C392.736 259.67 394.32 259.262 396.072 259.262C397.824 259.262 399.396 259.67 400.788 260.486C402.18 261.302 403.272 262.442 404.064 263.906C404.856 265.346 405.252 267.002 405.252 268.874L405.216 269.666ZM396.072 261.458C394.248 261.458 392.712 262.046 391.464 263.222C390.24 264.374 389.544 265.886 389.376 267.758H402.804C402.636 265.886 401.928 264.374 400.68 263.222C399.456 262.046 397.92 261.458 396.072 261.458ZM416.719 253.61C415.615 253.61 414.775 253.91 414.199 254.51C413.647 255.11 413.371 255.998 413.371 257.174V259.406H419.203V261.566H413.443V278.342H410.887V261.566H407.503V259.406H410.887V257.066C410.887 255.338 411.379 253.97 412.363 252.962C413.371 251.954 414.787 251.45 416.611 251.45C417.331 251.45 418.027 251.558 418.699 251.774C419.371 251.966 419.935 252.254 420.391 252.638L419.527 254.546C418.783 253.922 417.847 253.61 416.719 253.61ZM438.825 269.666H422.985C423.129 271.634 423.885 273.23 425.253 274.454C426.621 275.654 428.349 276.254 430.437 276.254C431.613 276.254 432.693 276.05 433.677 275.642C434.661 275.21 435.513 274.586 436.233 273.77L437.673 275.426C436.833 276.434 435.777 277.202 434.505 277.73C433.257 278.258 431.877 278.522 430.365 278.522C428.421 278.522 426.693 278.114 425.181 277.298C423.693 276.458 422.529 275.306 421.689 273.842C420.849 272.378 420.429 270.722 420.429 268.874C420.429 267.026 420.825 265.37 421.617 263.906C422.433 262.442 423.537 261.302 424.929 260.486C426.345 259.67 427.929 259.262 429.681 259.262C431.433 259.262 433.005 259.67 434.397 260.486C435.789 261.302 436.881 262.442 437.673 263.906C438.465 265.346 438.861 267.002 438.861 268.874L438.825 269.666ZM429.681 261.458C427.857 261.458 426.321 262.046 425.073 263.222C423.849 264.374 423.153 265.886 422.985 267.758H436.413C436.245 265.886 435.537 264.374 434.289 263.222C433.065 262.046 431.529 261.458 429.681 261.458ZM446.512 263.114C447.112 261.842 448 260.882 449.176 260.234C450.376 259.586 451.852 259.262 453.604 259.262V261.746L452.992 261.71C451 261.71 449.44 262.322 448.312 263.546C447.184 264.77 446.62 266.486 446.62 268.694V278.342H444.064V259.406H446.512V263.114ZM463.449 278.522C461.913 278.522 460.437 278.306 459.021 277.874C457.629 277.418 456.537 276.854 455.745 276.182L456.897 274.166C457.689 274.79 458.685 275.306 459.885 275.714C461.085 276.098 462.333 276.29 463.629 276.29C465.357 276.29 466.629 276.026 467.445 275.498C468.285 274.946 468.705 274.178 468.705 273.194C468.705 272.498 468.477 271.958 468.021 271.574C467.565 271.166 466.989 270.866 466.293 270.674C465.597 270.458 464.673 270.254 463.521 270.062C461.985 269.774 460.749 269.486 459.813 269.198C458.877 268.886 458.073 268.37 457.401 267.65C456.753 266.93 456.429 265.934 456.429 264.662C456.429 263.078 457.089 261.782 458.409 260.774C459.729 259.766 461.565 259.262 463.917 259.262C465.141 259.262 466.365 259.43 467.589 259.766C468.813 260.078 469.821 260.498 470.613 261.026L469.497 263.078C467.937 261.998 466.077 261.458 463.917 261.458C462.285 261.458 461.049 261.746 460.209 262.322C459.393 262.898 458.985 263.654 458.985 264.59C458.985 265.31 459.213 265.886 459.669 266.318C460.149 266.75 460.737 267.074 461.433 267.29C462.129 267.482 463.089 267.686 464.313 267.902C465.825 268.19 467.037 268.478 467.949 268.766C468.861 269.054 469.641 269.546 470.289 270.242C470.937 270.938 471.261 271.898 471.261 273.122C471.261 274.778 470.565 276.098 469.173 277.082C467.805 278.042 465.897 278.522 463.449 278.522ZM492.474 269.666H476.634C476.778 271.634 477.534 273.23 478.902 274.454C480.27 275.654 481.998 276.254 484.086 276.254C485.262 276.254 486.342 276.05 487.326 275.642C488.31 275.21 489.162 274.586 489.882 273.77L491.322 275.426C490.482 276.434 489.426 277.202 488.154 277.73C486.906 278.258 485.526 278.522 484.014 278.522C482.07 278.522 480.342 278.114 478.83 277.298C477.342 276.458 476.178 275.306 475.338 273.842C474.498 272.378 474.078 270.722 474.078 268.874C474.078 267.026 474.474 265.37 475.266 263.906C476.082 262.442 477.186 261.302 478.578 260.486C479.994 259.67 481.578 259.262 483.33 259.262C485.082 259.262 486.654 259.67 488.046 260.486C489.438 261.302 490.53 262.442 491.322 263.906C492.114 265.346 492.51 267.002 492.51 268.874L492.474 269.666ZM483.33 261.458C481.506 261.458 479.97 262.046 478.722 263.222C477.498 264.374 476.802 265.886 476.634 267.758H490.062C489.894 265.886 489.186 264.374 487.938 263.222C486.714 262.046 485.178 261.458 483.33 261.458ZM500.16 263.114C500.76 261.842 501.648 260.882 502.824 260.234C504.024 259.586 505.5 259.262 507.252 259.262V261.746L506.64 261.71C504.648 261.71 503.088 262.322 501.96 263.546C500.832 264.77 500.268 266.486 500.268 268.694V278.342H497.712V259.406H500.16V263.114ZM528.601 259.406L520.177 278.342H517.549L509.161 259.406H511.825L518.917 275.534L526.081 259.406H528.601ZM532.201 259.406H534.757V278.342H532.201V259.406ZM533.497 255.266C532.969 255.266 532.525 255.086 532.165 254.726C531.805 254.366 531.625 253.934 531.625 253.43C531.625 252.95 531.805 252.53 532.165 252.17C532.525 251.81 532.969 251.63 533.497 251.63C534.025 251.63 534.469 251.81 534.829 252.17C535.189 252.506 535.369 252.914 535.369 253.394C535.369 253.922 535.189 254.366 534.829 254.726C534.469 255.086 534.025 255.266 533.497 255.266ZM549.717 278.522C547.845 278.522 546.165 278.114 544.677 277.298C543.213 276.482 542.061 275.342 541.221 273.878C540.381 272.39 539.961 270.722 539.961 268.874C539.961 267.026 540.381 265.37 541.221 263.906C542.061 262.442 543.213 261.302 544.677 260.486C546.165 259.67 547.845 259.262 549.717 259.262C551.349 259.262 552.801 259.586 554.073 260.234C555.369 260.858 556.389 261.782 557.133 263.006L555.225 264.302C554.601 263.366 553.809 262.67 552.849 262.214C551.889 261.734 550.845 261.494 549.717 261.494C548.349 261.494 547.113 261.806 546.009 262.43C544.929 263.03 544.077 263.894 543.453 265.022C542.853 266.15 542.553 267.434 542.553 268.874C542.553 270.338 542.853 271.634 543.453 272.762C544.077 273.866 544.929 274.73 546.009 275.354C547.113 275.954 548.349 276.254 549.717 276.254C550.845 276.254 551.889 276.026 552.849 275.57C553.809 275.114 554.601 274.418 555.225 273.482L557.133 274.778C556.389 276.002 555.369 276.938 554.073 277.586C552.777 278.21 551.325 278.522 549.717 278.522ZM578.325 269.666H562.485C562.629 271.634 563.385 273.23 564.753 274.454C566.121 275.654 567.849 276.254 569.937 276.254C571.113 276.254 572.193 276.05 573.177 275.642C574.161 275.21 575.013 274.586 575.733 273.77L577.173 275.426C576.333 276.434 575.277 277.202 574.005 277.73C572.757 278.258 571.377 278.522 569.865 278.522C567.921 278.522 566.193 278.114 564.681 277.298C563.193 276.458 562.029 275.306 561.189 273.842C560.349 272.378 559.929 270.722 559.929 268.874C559.929 267.026 560.325 265.37 561.117 263.906C561.933 262.442 563.037 261.302 564.429 260.486C565.845 259.67 567.429 259.262 569.181 259.262C570.933 259.262 572.505 259.67 573.897 260.486C575.289 261.302 576.381 262.442 577.173 263.906C577.965 265.346 578.361 267.002 578.361 268.874L578.325 269.666ZM569.181 261.458C567.357 261.458 565.821 262.046 564.573 263.222C563.349 264.374 562.653 265.886 562.485 267.758H575.913C575.745 265.886 575.037 264.374 573.789 263.222C572.565 262.046 571.029 261.458 569.181 261.458ZM602.634 259.262C605.01 259.262 606.894 259.958 608.286 261.35C609.702 262.718 610.41 264.722 610.41 267.362V278.342H607.854V267.614C607.854 265.646 607.362 264.146 606.378 263.114C605.394 262.082 603.99 261.566 602.166 261.566C600.126 261.566 598.506 262.178 597.306 263.402C596.13 264.602 595.542 266.27 595.542 268.406V278.342H592.986V259.406H595.434V262.898C596.13 261.746 597.09 260.858 598.314 260.234C599.562 259.586 601.002 259.262 602.634 259.262ZM623.973 259.262C626.445 259.262 628.341 259.886 629.661 261.134C630.981 262.358 631.641 264.182 631.641 266.606V278.342H629.193V275.39C628.617 276.374 627.765 277.142 626.637 277.694C625.533 278.246 624.213 278.522 622.677 278.522C620.565 278.522 618.885 278.018 617.637 277.01C616.389 276.002 615.765 274.67 615.765 273.014C615.765 271.406 616.341 270.11 617.493 269.126C618.669 268.142 620.529 267.65 623.073 267.65H629.085V266.498C629.085 264.866 628.629 263.63 627.717 262.79C626.805 261.926 625.473 261.494 623.721 261.494C622.521 261.494 621.369 261.698 620.265 262.106C619.161 262.49 618.213 263.03 617.421 263.726L616.269 261.818C617.229 261.002 618.381 260.378 619.725 259.946C621.069 259.49 622.485 259.262 623.973 259.262ZM623.073 276.506C624.513 276.506 625.749 276.182 626.781 275.534C627.813 274.862 628.581 273.902 629.085 272.654V269.558H623.145C619.905 269.558 618.285 270.686 618.285 272.942C618.285 274.046 618.705 274.922 619.545 275.57C620.385 276.194 621.561 276.506 623.073 276.506ZM646.502 278.522C644.63 278.522 642.95 278.114 641.462 277.298C639.998 276.482 638.846 275.342 638.006 273.878C637.166 272.39 636.746 270.722 636.746 268.874C636.746 267.026 637.166 265.37 638.006 263.906C638.846 262.442 639.998 261.302 641.462 260.486C642.95 259.67 644.63 259.262 646.502 259.262C648.134 259.262 649.586 259.586 650.858 260.234C652.154 260.858 653.174 261.782 653.918 263.006L652.01 264.302C651.386 263.366 650.594 262.67 649.634 262.214C648.674 261.734 647.63 261.494 646.502 261.494C645.134 261.494 643.898 261.806 642.794 262.43C641.714 263.03 640.862 263.894 640.238 265.022C639.638 266.15 639.338 267.434 639.338 268.874C639.338 270.338 639.638 271.634 640.238 272.762C640.862 273.866 641.714 274.73 642.794 275.354C643.898 275.954 645.134 276.254 646.502 276.254C647.63 276.254 648.674 276.026 649.634 275.57C650.594 275.114 651.386 274.418 652.01 273.482L653.918 274.778C653.174 276.002 652.154 276.938 650.858 277.586C649.562 278.21 648.11 278.522 646.502 278.522ZM668.306 259.262C670.682 259.262 672.566 259.958 673.958 261.35C675.374 262.718 676.082 264.722 676.082 267.362V278.342H673.526V267.614C673.526 265.646 673.034 264.146 672.05 263.114C671.066 262.082 669.662 261.566 667.838 261.566C665.798 261.566 664.178 262.178 662.978 263.402C661.802 264.602 661.214 266.27 661.214 268.406V278.342H658.658V251.63H661.214V262.718C661.91 261.614 662.87 260.762 664.094 260.162C665.318 259.562 666.722 259.262 668.306 259.262ZM719.155 253.142V278.342H716.599V258.182L706.699 275.138H705.439L695.539 258.29V278.342H692.983V253.142H695.179L706.123 271.826L716.959 253.142H719.155ZM733.45 259.262C735.922 259.262 737.818 259.886 739.138 261.134C740.458 262.358 741.118 264.182 741.118 266.606V278.342H738.67V275.39C738.094 276.374 737.242 277.142 736.114 277.694C735.01 278.246 733.69 278.522 732.154 278.522C730.042 278.522 728.362 278.018 727.114 277.01C725.866 276.002 725.242 274.67 725.242 273.014C725.242 271.406 725.818 270.11 726.97 269.126C728.146 268.142 730.006 267.65 732.55 267.65H738.562V266.498C738.562 264.866 738.106 263.63 737.194 262.79C736.282 261.926 734.95 261.494 733.198 261.494C731.998 261.494 730.846 261.698 729.742 262.106C728.638 262.49 727.69 263.03 726.898 263.726L725.746 261.818C726.706 261.002 727.858 260.378 729.202 259.946C730.546 259.49 731.962 259.262 733.45 259.262ZM732.55 276.506C733.99 276.506 735.226 276.182 736.258 275.534C737.29 274.862 738.058 273.902 738.562 272.654V269.558H732.622C729.382 269.558 727.762 270.686 727.762 272.942C727.762 274.046 728.182 274.922 729.022 275.57C729.862 276.194 731.038 276.506 732.55 276.506ZM750.508 263.114C751.108 261.842 751.996 260.882 753.172 260.234C754.372 259.586 755.848 259.262 757.6 259.262V261.746L756.988 261.71C754.996 261.71 753.436 262.322 752.308 263.546C751.18 264.77 750.616 266.486 750.616 268.694V278.342H748.06V259.406H750.508V263.114ZM769.248 268.838L764.784 272.942V278.342H762.228V251.63H764.784V269.738L776.088 259.406H779.256L771.156 267.146L780.012 278.342H776.88L769.248 268.838ZM790.869 268.838L786.405 272.942V278.342H783.849V251.63H786.405V269.738L797.709 259.406H800.877L792.777 267.146L801.633 278.342H798.501L790.869 268.838ZM805.47 251.63H808.026V278.342H805.47V251.63ZM831.626 269.666H815.786C815.93 271.634 816.686 273.23 818.054 274.454C819.422 275.654 821.15 276.254 823.238 276.254C824.414 276.254 825.494 276.05 826.478 275.642C827.462 275.21 828.314 274.586 829.034 273.77L830.474 275.426C829.634 276.434 828.578 277.202 827.306 277.73C826.058 278.258 824.678 278.522 823.166 278.522C821.222 278.522 819.494 278.114 817.982 277.298C816.494 276.458 815.33 275.306 814.49 273.842C813.65 272.378 813.23 270.722 813.23 268.874C813.23 267.026 813.626 265.37 814.418 263.906C815.234 262.442 816.338 261.302 817.73 260.486C819.146 259.67 820.73 259.262 822.482 259.262C824.234 259.262 825.806 259.67 827.198 260.486C828.59 261.302 829.682 262.442 830.474 263.906C831.266 265.346 831.662 267.002 831.662 268.874L831.626 269.666ZM822.482 261.458C820.658 261.458 819.122 262.046 817.874 263.222C816.65 264.374 815.954 265.886 815.786 267.758H829.214C829.046 265.886 828.338 264.374 827.09 263.222C825.866 262.046 824.33 261.458 822.482 261.458ZM853.353 269.666H837.513C837.657 271.634 838.413 273.23 839.781 274.454C841.149 275.654 842.877 276.254 844.965 276.254C846.141 276.254 847.221 276.05 848.205 275.642C849.189 275.21 850.041 274.586 850.761 273.77L852.201 275.426C851.361 276.434 850.305 277.202 849.033 277.73C847.785 278.258 846.405 278.522 844.893 278.522C842.949 278.522 841.221 278.114 839.709 277.298C838.221 276.458 837.057 275.306 836.217 273.842C835.377 272.378 834.957 270.722 834.957 268.874C834.957 267.026 835.353 265.37 836.145 263.906C836.961 262.442 838.065 261.302 839.457 260.486C840.873 259.67 842.457 259.262 844.209 259.262C845.961 259.262 847.533 259.67 848.925 260.486C850.317 261.302 851.409 262.442 852.201 263.906C852.993 265.346 853.389 267.002 853.389 268.874L853.353 269.666ZM844.209 261.458C842.385 261.458 840.849 262.046 839.601 263.222C838.377 264.374 837.681 265.886 837.513 267.758H850.941C850.773 265.886 850.065 264.374 848.817 263.222C847.593 262.046 846.057 261.458 844.209 261.458ZM868.347 259.262C870.123 259.262 871.731 259.67 873.171 260.486C874.611 261.278 875.739 262.406 876.555 263.87C877.371 265.334 877.779 267.002 877.779 268.874C877.779 270.746 877.371 272.414 876.555 273.878C875.739 275.342 874.611 276.482 873.171 277.298C871.731 278.114 870.123 278.522 868.347 278.522C866.763 278.522 865.335 278.186 864.063 277.514C862.815 276.842 861.807 275.87 861.039 274.598V278.342H858.591V251.63H861.147V263.006C861.939 261.782 862.947 260.858 864.171 260.234C865.419 259.586 866.811 259.262 868.347 259.262ZM868.167 276.254C869.487 276.254 870.687 275.954 871.767 275.354C872.847 274.73 873.687 273.854 874.287 272.726C874.911 271.598 875.223 270.314 875.223 268.874C875.223 267.434 874.911 266.15 874.287 265.022C873.687 263.894 872.847 263.03 871.767 262.43C870.687 261.806 869.487 261.494 868.167 261.494C866.823 261.494 865.611 261.806 864.531 262.43C863.475 263.03 862.635 263.894 862.011 265.022C861.411 266.15 861.111 267.434 861.111 268.874C861.111 270.314 861.411 271.598 862.011 272.726C862.635 273.854 863.475 274.73 864.531 275.354C865.611 275.954 866.823 276.254 868.167 276.254ZM899.478 269.666H883.638C883.782 271.634 884.538 273.23 885.906 274.454C887.274 275.654 889.002 276.254 891.09 276.254C892.266 276.254 893.346 276.05 894.33 275.642C895.314 275.21 896.166 274.586 896.886 273.77L898.326 275.426C897.486 276.434 896.43 277.202 895.158 277.73C893.91 278.258 892.53 278.522 891.018 278.522C889.074 278.522 887.346 278.114 885.834 277.298C884.346 276.458 883.182 275.306 882.342 273.842C881.502 272.378 881.082 270.722 881.082 268.874C881.082 267.026 881.478 265.37 882.27 263.906C883.086 262.442 884.19 261.302 885.582 260.486C886.998 259.67 888.582 259.262 890.334 259.262C892.086 259.262 893.658 259.67 895.05 260.486C896.442 261.302 897.534 262.442 898.326 263.906C899.118 265.346 899.514 267.002 899.514 268.874L899.478 269.666ZM890.334 261.458C888.51 261.458 886.974 262.046 885.726 263.222C884.502 264.374 883.806 265.886 883.638 267.758H897.066C896.898 265.886 896.19 264.374 894.942 263.222C893.718 262.046 892.182 261.458 890.334 261.458ZM907.164 263.114C907.764 261.842 908.652 260.882 909.828 260.234C911.028 259.586 912.504 259.262 914.256 259.262V261.746L913.644 261.71C911.652 261.71 910.092 262.322 908.964 263.546C907.836 264.77 907.272 266.486 907.272 268.694V278.342H904.716V259.406H907.164V263.114ZM936.241 259.406V276.038C936.241 279.254 935.449 281.63 933.865 283.166C932.305 284.726 929.941 285.506 926.773 285.506C925.021 285.506 923.353 285.242 921.769 284.714C920.209 284.21 918.937 283.502 917.953 282.59L919.249 280.646C920.161 281.462 921.265 282.098 922.561 282.554C923.881 283.01 925.261 283.238 926.701 283.238C929.101 283.238 930.865 282.674 931.993 281.546C933.121 280.442 933.685 278.714 933.685 276.362V273.95C932.893 275.15 931.849 276.062 930.553 276.686C929.281 277.31 927.865 277.622 926.305 277.622C924.529 277.622 922.909 277.238 921.445 276.47C920.005 275.678 918.865 274.586 918.025 273.194C917.209 271.778 916.801 270.182 916.801 268.406C916.801 266.63 917.209 265.046 918.025 263.654C918.865 262.262 920.005 261.182 921.445 260.414C922.885 259.646 924.505 259.262 926.305 259.262C927.913 259.262 929.365 259.586 930.661 260.234C931.957 260.882 933.001 261.818 933.793 263.042V259.406H936.241ZM926.557 275.354C927.925 275.354 929.161 275.066 930.265 274.49C931.369 273.89 932.221 273.062 932.821 272.006C933.445 270.95 933.757 269.75 933.757 268.406C933.757 267.062 933.445 265.874 932.821 264.842C932.221 263.786 931.369 262.97 930.265 262.394C929.185 261.794 927.949 261.494 926.557 261.494C925.189 261.494 923.953 261.782 922.849 262.358C921.769 262.934 920.917 263.75 920.293 264.806C919.693 265.862 919.393 267.062 919.393 268.406C919.393 269.75 919.693 270.95 920.293 272.006C920.917 273.062 921.769 273.89 922.849 274.49C923.953 275.066 925.189 275.354 926.557 275.354Z" fill="#404040"/>
<path fill-rule="evenodd" clip-rule="evenodd" d="M692.191 0.174999C694.326 -0.294638 696.561 0.191487 698.309 1.50689C700.057 2.82229 701.144 4.83455 701.285 7.01749L705.423 71.1663C706.305 84.8441 698.342 97.4381 685.61 102.508L587.024 141.76C586.142 142.11 585.252 142.405 584.357 142.645C583.744 142.809 583.129 142.947 582.513 143.06C580.196 143.482 578.161 145.09 577.689 147.398L574.342 163.753L574.341 163.754C574.32 163.86 574.285 164.036 574.493 164.232C574.702 164.429 574.877 164.382 574.98 164.355L709.57 128.291C713.572 127.219 717.684 129.594 718.756 133.595C718.976 134.414 719.05 135.237 718.994 136.038C718.84 138.275 718.885 140.731 720.083 142.627C721.315 144.576 722.278 146.739 722.905 149.08C724.339 154.432 723.8 159.856 721.735 164.576H700.184V178.706C689.794 178.707 680.259 171.764 677.445 161.261C677.322 160.804 677.214 160.346 677.121 159.888C676.415 156.439 673.118 153.588 669.718 154.499L617.815 168.406C614.414 169.318 612.985 173.435 614.098 176.775C614.246 177.218 614.382 177.669 614.504 178.126C614.879 179.525 615.119 180.928 615.232 182.323C610.864 179.734 605.653 178.688 600.113 178.688C599.507 178.688 598.903 178.701 598.301 178.727C596.233 176.276 592.861 175.095 589.565 175.978C586.433 176.817 584.174 179.304 583.471 182.256C582.337 182.8 581.247 183.407 580.206 184.084L580.159 167.6H559.777C559.232 165.397 559.174 163.064 559.649 160.745L563.529 141.784C563.915 139.897 563.149 137.988 561.779 136.634C560.405 135.275 559.176 133.727 558.138 131.996L506.647 46.1157C506.584 46.0105 506.485 45.9304 506.369 45.8912L481.783 37.5751C477.86 36.2483 475.755 31.9919 477.082 28.0679C478.408 24.1438 482.666 22.0392 486.589 23.366L511.176 31.6837C514.446 32.7908 517.253 34.9599 519.149 37.828C519.284 38.0316 519.533 38.1278 519.771 38.0749L692.191 0.174999ZM573.248 198.727C571.345 196.304 569.891 193.467 569.044 190.307C568.35 187.717 568.121 185.111 568.302 182.576C568.482 180.068 567.21 177.597 565.238 176.037C564.886 175.758 564.543 175.463 564.212 175.151C564.021 174.971 563.835 174.787 563.655 174.6H573.179L573.248 198.727ZM614.45 190.486C614.284 190.322 614.113 190.163 613.937 190.008C610.732 187.138 606.146 185.698 600.177 185.688C599.619 188.854 597.286 191.575 593.981 192.461C590.535 193.384 587.006 192.051 584.971 189.371C584.428 189.685 583.907 190.017 583.409 190.368L587.441 198.216C588.79 197.146 590.409 196.302 592.299 195.682C592.359 195.663 592.42 195.643 592.481 195.624L592.495 195.619C594.507 194.95 596.542 194.616 598.601 194.616C600.267 194.616 601.7 194.827 602.9 195.248C603.843 195.579 604.642 196.041 605.297 196.632C606.673 197.83 607.412 199.521 607.516 201.705C610.844 198.699 613.252 194.792 614.45 190.486ZM606.893 202.248C604.341 204.394 601.292 206.029 597.865 206.947C593.338 208.16 588.759 207.961 584.598 206.621C585.016 206.167 585.483 205.741 586.001 205.344C587.378 204.305 589.126 203.528 591.244 203.012C592.089 202.806 592.992 202.642 593.954 202.519C594.111 202.5 594.269 202.481 594.429 202.463C595.718 202.32 597.108 202.248 598.601 202.248H606.893ZM717.039 171.576C714.387 174.311 711.043 176.433 707.184 177.635V171.576H717.039ZM708.415 152.965C707.198 148.421 702.51 145.714 697.966 146.932C693.421 148.15 690.715 152.837 691.933 157.382C693.15 161.926 697.837 164.632 702.382 163.415C706.927 162.197 709.633 157.51 708.415 152.965ZM543.155 77.8414C544.303 79.756 546.581 80.6777 548.738 80.0999L564.31 75.9273C567.291 75.1285 568.844 71.8465 567.571 69.0351L558.49 48.981C557.515 46.8294 555.168 45.6531 552.861 46.1602L534.292 50.2421C530.955 50.9757 529.32 54.7661 531.077 57.6966L543.155 77.8414ZM571.002 124.284C573.163 127.891 577.564 129.381 581.476 127.824L587.384 125.471C590.034 124.416 591.266 121.362 590.089 118.764L578.023 92.1165C577.013 89.8869 574.538 88.7159 572.174 89.3494L559.52 92.7399C556.311 93.5997 554.818 97.2917 556.526 100.141L571.002 124.284ZM618.471 113.094C620.827 112.156 622.108 109.604 621.451 107.155L614.993 83.0533C614.279 80.386 611.537 78.8031 608.87 79.5178L596.649 82.7922C593.668 83.5909 592.116 86.8729 593.389 89.6843L604.232 113.631C605.334 116.065 608.155 117.202 610.637 116.214L618.471 113.094ZM604.987 65.0279C607.654 64.3132 609.237 61.5715 608.523 58.9042L603.439 39.9304C602.747 37.3483 600.146 35.7672 597.536 36.3411L577.822 40.6743C574.717 41.3567 573.029 44.7247 574.34 47.6203L582.936 66.6022C583.945 68.8318 586.421 70.0028 588.785 69.3693L604.987 65.0279ZM654.364 98.8033C656.56 97.9286 657.844 95.6345 657.441 93.3045L653.938 73.0838C653.436 70.1876 650.556 68.3469 647.717 69.1076L633.017 73.0463C630.35 73.761 628.767 76.5027 629.482 79.1701L635.179 100.431C635.953 103.322 639.077 104.89 641.858 103.783L654.364 98.8033ZM646.021 54.033C648.519 53.3635 650.095 50.8987 649.653 48.3499L646.63 30.8972C646.143 28.0896 643.413 26.2554 640.63 26.8672L621.977 30.9675C619.193 31.5795 617.484 34.3916 618.221 37.145L623.011 55.0219C623.726 57.6892 626.468 59.2722 629.135 58.5575L646.021 54.033ZM680.061 88.5726C686.739 85.9136 690.916 79.3065 690.453 72.1337L689.928 63.9897C689.725 60.8411 686.692 58.6654 683.644 59.482L671.964 62.6118C669.465 63.2813 667.89 65.746 668.331 68.2948L671.322 85.5621C671.865 88.6912 675.148 90.5288 678.099 89.354L680.061 88.5726ZM684.592 43.6979C686.894 43.081 688.441 40.9249 688.287 38.5465L687.253 22.5131C687.056 19.4564 684.182 17.2939 681.19 17.9515L665.072 21.4946C662.46 22.0687 660.762 24.5964 661.219 27.2315L664.047 43.5598C664.549 46.456 667.429 48.2967 670.268 47.5359L684.592 43.6979ZM580.783 200.576C580.603 200.734 580.427 200.896 580.255 201.059L580.25 199.538L580.783 200.576Z" fill="#404040"/>
<path d="M486 86.3421L428 86.3421" stroke="#404040" stroke-width="10" stroke-linecap="round"/>
<path d="M517 119L433 119" stroke="#404040" stroke-width="10" stroke-linecap="round"/>
<path d="M516 152L457 152" stroke="#404040" stroke-width="10" stroke-linecap="round"/>
<path d="M5.976 174.6H17.64V215.496H42.912V225H5.976V174.6ZM48.6371 186.264H59.8691V225H48.6371V186.264ZM54.2531 180.864C52.1891 180.864 50.5091 180.264 49.2131 179.064C47.9171 177.864 47.2691 176.376 47.2691 174.6C47.2691 172.824 47.9171 171.336 49.2131 170.136C50.5091 168.936 52.1891 168.336 54.2531 168.336C56.3171 168.336 57.9971 168.912 59.2931 170.064C60.5891 171.216 61.2371 172.656 61.2371 174.384C61.2371 176.256 60.5891 177.816 59.2931 179.064C57.9971 180.264 56.3171 180.864 54.2531 180.864ZM108.237 205.776C108.237 205.92 108.165 206.928 108.021 208.8H78.7174C79.2454 211.2 80.4934 213.096 82.4614 214.488C84.4294 215.88 86.8774 216.576 89.8054 216.576C91.8214 216.576 93.5974 216.288 95.1334 215.712C96.7174 215.088 98.1814 214.128 99.5254 212.832L105.501 219.312C101.853 223.488 96.5254 225.576 89.5174 225.576C85.1494 225.576 81.2854 224.736 77.9254 223.056C74.5654 221.328 71.9734 218.952 70.1494 215.928C68.3254 212.904 67.4134 209.472 67.4134 205.632C67.4134 201.84 68.3014 198.432 70.0774 195.408C71.9014 192.336 74.3734 189.96 77.4934 188.28C80.6614 186.552 84.1894 185.688 88.0774 185.688C91.8694 185.688 95.3014 186.504 98.3734 188.136C101.445 189.768 103.845 192.12 105.573 195.192C107.349 198.216 108.237 201.744 108.237 205.776ZM88.1494 194.184C85.6054 194.184 83.4694 194.904 81.7414 196.344C80.0134 197.784 78.9574 199.752 78.5734 202.248H97.6534C97.2694 199.8 96.2134 197.856 94.4854 196.416C92.7574 194.928 90.6454 194.184 88.1494 194.184ZM128.027 187.128H137.963V195.768H128.315V225H117.083V195.768H111.107V187.128H117.083V185.4C117.083 180.984 118.379 177.48 120.971 174.888C123.611 172.296 127.307 171 132.059 171C133.739 171 135.323 171.192 136.811 171.576C138.347 171.912 139.619 172.416 140.627 173.088L137.675 181.224C136.379 180.312 134.867 179.856 133.139 179.856C129.731 179.856 128.027 181.728 128.027 185.472V187.128ZM181.011 205.776C181.011 205.92 180.939 206.928 180.795 208.8H151.491C152.019 211.2 153.267 213.096 155.235 214.488C157.203 215.88 159.651 216.576 162.579 216.576C164.595 216.576 166.371 216.288 167.907 215.712C169.491 215.088 170.955 214.128 172.299 212.832L178.275 219.312C174.627 223.488 169.299 225.576 162.291 225.576C157.923 225.576 154.059 224.736 150.699 223.056C147.339 221.328 144.747 218.952 142.923 215.928C141.099 212.904 140.187 209.472 140.187 205.632C140.187 201.84 141.075 198.432 142.851 195.408C144.675 192.336 147.147 189.96 150.267 188.28C153.435 186.552 156.963 185.688 160.851 185.688C164.643 185.688 168.075 186.504 171.147 188.136C174.219 189.768 176.619 192.12 178.347 195.192C180.123 198.216 181.011 201.744 181.011 205.776ZM160.923 194.184C158.379 194.184 156.243 194.904 154.515 196.344C152.787 197.784 151.731 199.752 151.347 202.248H170.427C170.043 199.8 168.987 197.856 167.259 196.416C165.531 194.928 163.419 194.184 160.923 194.184ZM199.217 191.376C200.561 189.504 202.361 188.088 204.617 187.128C206.921 186.168 209.561 185.688 212.537 185.688V196.056C211.289 195.96 210.449 195.912 210.017 195.912C206.801 195.912 204.281 196.824 202.457 198.648C200.633 200.424 199.721 203.112 199.721 206.712V225H188.489V186.264H199.217V191.376ZM232.388 225.576C229.172 225.576 226.028 225.192 222.956 224.424C219.884 223.608 217.436 222.6 215.612 221.4L219.356 213.336C221.084 214.44 223.172 215.352 225.62 216.072C228.068 216.744 230.468 217.08 232.82 217.08C237.572 217.08 239.948 215.904 239.948 213.552C239.948 212.448 239.3 211.656 238.004 211.176C236.708 210.696 234.716 210.288 232.028 209.952C228.86 209.472 226.244 208.92 224.18 208.296C222.116 207.672 220.316 206.568 218.78 204.984C217.292 203.4 216.548 201.144 216.548 198.216C216.548 195.768 217.244 193.608 218.636 191.736C220.076 189.816 222.14 188.328 224.828 187.272C227.564 186.216 230.78 185.688 234.476 185.688C237.212 185.688 239.924 186 242.612 186.624C245.348 187.2 247.604 188.016 249.38 189.072L245.636 197.064C242.228 195.144 238.508 194.184 234.476 194.184C232.076 194.184 230.276 194.52 229.076 195.192C227.876 195.864 227.276 196.728 227.276 197.784C227.276 198.984 227.924 199.824 229.22 200.304C230.516 200.784 232.58 201.24 235.412 201.672C238.58 202.2 241.172 202.776 243.188 203.4C245.204 203.976 246.956 205.056 248.444 206.64C249.932 208.224 250.676 210.432 250.676 213.264C250.676 215.664 249.956 217.8 248.516 219.672C247.076 221.544 244.964 223.008 242.18 224.064C239.444 225.072 236.18 225.576 232.388 225.576ZM295.55 205.776C295.55 205.92 295.478 206.928 295.334 208.8H266.03C266.558 211.2 267.806 213.096 269.774 214.488C271.742 215.88 274.19 216.576 277.118 216.576C279.134 216.576 280.91 216.288 282.446 215.712C284.03 215.088 285.494 214.128 286.838 212.832L292.814 219.312C289.166 223.488 283.838 225.576 276.83 225.576C272.462 225.576 268.598 224.736 265.238 223.056C261.878 221.328 259.286 218.952 257.462 215.928C255.638 212.904 254.726 209.472 254.726 205.632C254.726 201.84 255.614 198.432 257.39 195.408C259.214 192.336 261.686 189.96 264.806 188.28C267.974 186.552 271.502 185.688 275.39 185.688C279.182 185.688 282.614 186.504 285.686 188.136C288.758 189.768 291.158 192.12 292.886 195.192C294.662 198.216 295.55 201.744 295.55 205.776ZM275.462 194.184C272.918 194.184 270.782 194.904 269.054 196.344C267.326 197.784 266.27 199.752 265.886 202.248H284.966C284.582 199.8 283.526 197.856 281.798 196.416C280.07 194.928 277.958 194.184 275.462 194.184ZM313.756 191.376C315.1 189.504 316.9 188.088 319.156 187.128C321.46 186.168 324.1 185.688 327.076 185.688V196.056C325.828 195.96 324.988 195.912 324.556 195.912C321.34 195.912 318.82 196.824 316.996 198.648C315.172 200.424 314.26 203.112 314.26 206.712V225H303.028V186.264H313.756V191.376ZM373.538 186.264L357.194 225H345.602L329.33 186.264H340.922L351.65 212.616L362.738 186.264H373.538ZM378.122 186.264H389.354V225H378.122V186.264ZM383.738 180.864C381.674 180.864 379.994 180.264 378.698 179.064C377.402 177.864 376.754 176.376 376.754 174.6C376.754 172.824 377.402 171.336 378.698 170.136C379.994 168.936 381.674 168.336 383.738 168.336C385.802 168.336 387.482 168.912 388.778 170.064C390.074 171.216 390.722 172.656 390.722 174.384C390.722 176.256 390.074 177.816 388.778 179.064C387.482 180.264 385.802 180.864 383.738 180.864ZM418.498 225.576C414.37 225.576 410.65 224.736 407.338 223.056C404.074 221.328 401.506 218.952 399.634 215.928C397.81 212.904 396.898 209.472 396.898 205.632C396.898 201.792 397.81 198.36 399.634 195.336C401.506 192.312 404.074 189.96 407.338 188.28C410.65 186.552 414.37 185.688 418.498 185.688C422.578 185.688 426.13 186.552 429.154 188.28C432.226 189.96 434.458 192.384 435.85 195.552L427.138 200.232C425.122 196.68 422.218 194.904 418.426 194.904C415.498 194.904 413.074 195.864 411.154 197.784C409.234 199.704 408.274 202.32 408.274 205.632C408.274 208.944 409.234 211.56 411.154 213.48C413.074 215.4 415.498 216.36 418.426 216.36C422.266 216.36 425.17 214.584 427.138 211.032L435.85 215.784C434.458 218.856 432.226 221.256 429.154 222.984C426.13 224.712 422.578 225.576 418.498 225.576ZM479.769 205.776C479.769 205.92 479.697 206.928 479.553 208.8H450.249C450.777 211.2 452.025 213.096 453.993 214.488C455.961 215.88 458.409 216.576 461.337 216.576C463.353 216.576 465.129 216.288 466.665 215.712C468.249 215.088 469.713 214.128 471.057 212.832L477.033 219.312C473.385 223.488 468.057 225.576 461.049 225.576C456.681 225.576 452.817 224.736 449.457 223.056C446.097 221.328 443.505 218.952 441.681 215.928C439.857 212.904 438.945 209.472 438.945 205.632C438.945 201.84 439.833 198.432 441.609 195.408C443.433 192.336 445.905 189.96 449.025 188.28C452.193 186.552 455.721 185.688 459.609 185.688C463.401 185.688 466.833 186.504 469.905 188.136C472.977 189.768 475.377 192.12 477.105 195.192C478.881 198.216 479.769 201.744 479.769 205.776ZM459.681 194.184C457.137 194.184 455.001 194.904 453.273 196.344C451.545 197.784 450.489 199.752 450.105 202.248H469.185C468.801 199.8 467.745 197.856 466.017 196.416C464.289 194.928 462.177 194.184 459.681 194.184ZM486.51 200.232H506.886V209.232H486.51V200.232ZM562.379 225L562.307 194.76L547.475 219.672H542.219L527.459 195.408V225H516.515V174.6H526.163L545.027 205.92L563.603 174.6H573.179L573.323 225H562.379ZM600.113 185.688C606.113 185.688 610.721 187.128 613.937 190.008C617.153 192.84 618.761 197.136 618.761 202.896V225H608.249V220.176C606.137 223.776 602.201 225.576 596.441 225.576C593.465 225.576 590.873 225.072 588.665 224.064C586.505 223.056 584.849 221.664 583.697 219.888C582.545 218.112 581.969 216.096 581.969 213.84C581.969 210.24 583.313 207.408 586.001 205.344C588.737 203.28 592.937 202.248 598.601 202.248H607.529C607.529 199.8 606.785 197.928 605.297 196.632C603.809 195.288 601.577 194.616 598.601 194.616C596.537 194.616 594.497 194.952 592.481 195.624C590.513 196.248 588.833 197.112 587.441 198.216L583.409 190.368C585.521 188.88 588.041 187.728 590.969 186.912C593.945 186.096 596.993 185.688 600.113 185.688ZM599.249 218.016C601.169 218.016 602.873 217.584 604.361 216.72C605.849 215.808 606.905 214.488 607.529 212.76V208.8H599.825C595.217 208.8 592.913 210.312 592.913 213.336C592.913 214.776 593.465 215.928 594.569 216.792C595.721 217.608 597.281 218.016 599.249 218.016ZM639.654 191.376C640.998 189.504 642.798 188.088 645.054 187.128C647.358 186.168 649.998 185.688 652.974 185.688V196.056C651.726 195.96 650.886 195.912 650.454 195.912C647.238 195.912 644.718 196.824 642.894 198.648C641.07 200.424 640.158 203.112 640.158 206.712V225H628.926V186.264H639.654V191.376ZM676.285 209.808L670.885 215.136V225H659.653V171.576H670.885V201.816L687.301 186.264H700.693L684.565 202.68L702.133 225H688.525L676.285 209.808ZM723.816 209.808L718.416 215.136V225H707.184V171.576H718.416V201.816L734.832 186.264H748.224L732.096 202.68L749.664 225H736.056L723.816 209.808ZM754.715 171.576H765.947V225H754.715V171.576ZM814.316 205.776C814.316 205.92 814.244 206.928 814.1 208.8H784.796C785.324 211.2 786.572 213.096 788.54 214.488C790.508 215.88 792.956 216.576 795.884 216.576C797.9 216.576 799.676 216.288 801.212 215.712C802.796 215.088 804.26 214.128 805.604 212.832L811.58 219.312C807.932 223.488 802.604 225.576 795.596 225.576C791.228 225.576 787.364 224.736 784.004 223.056C780.644 221.328 778.052 218.952 776.228 215.928C774.404 212.904 773.492 209.472 773.492 205.632C773.492 201.84 774.38 198.432 776.156 195.408C777.98 192.336 780.452 189.96 783.572 188.28C786.74 186.552 790.268 185.688 794.156 185.688C797.948 185.688 801.38 186.504 804.452 188.136C807.524 189.768 809.924 192.12 811.652 195.192C813.428 198.216 814.316 201.744 814.316 205.776ZM794.228 194.184C791.684 194.184 789.548 194.904 787.82 196.344C786.092 197.784 785.036 199.752 784.652 202.248H803.732C803.348 199.8 802.292 197.856 800.564 196.416C798.836 194.928 796.724 194.184 794.228 194.184ZM859.737 205.776C859.737 205.92 859.665 206.928 859.521 208.8H830.217C830.745 211.2 831.993 213.096 833.961 214.488C835.929 215.88 838.377 216.576 841.305 216.576C843.321 216.576 845.097 216.288 846.633 215.712C848.217 215.088 849.681 214.128 851.025 212.832L857.001 219.312C853.353 223.488 848.025 225.576 841.017 225.576C836.649 225.576 832.785 224.736 829.425 223.056C826.065 221.328 823.473 218.952 821.649 215.928C819.825 212.904 818.913 209.472 818.913 205.632C818.913 201.84 819.801 198.432 821.577 195.408C823.401 192.336 825.873 189.96 828.993 188.28C832.161 186.552 835.689 185.688 839.577 185.688C843.369 185.688 846.801 186.504 849.873 188.136C852.945 189.768 855.345 192.12 857.073 195.192C858.849 198.216 859.737 201.744 859.737 205.776ZM839.649 194.184C837.105 194.184 834.969 194.904 833.241 196.344C831.513 197.784 830.457 199.752 830.073 202.248H849.153C848.769 199.8 847.713 197.856 845.985 196.416C844.257 194.928 842.145 194.184 839.649 194.184ZM890.111 185.688C893.711 185.688 896.975 186.528 899.903 188.208C902.879 189.84 905.207 192.168 906.887 195.192C908.567 198.168 909.407 201.648 909.407 205.632C909.407 209.616 908.567 213.12 906.887 216.144C905.207 219.12 902.879 221.448 899.903 223.128C896.975 224.76 893.711 225.576 890.111 225.576C884.783 225.576 880.727 223.896 877.943 220.536V225H867.215V171.576H878.447V190.368C881.279 187.248 885.167 185.688 890.111 185.688ZM888.167 216.36C891.047 216.36 893.399 215.4 895.223 213.48C897.095 211.512 898.031 208.896 898.031 205.632C898.031 202.368 897.095 199.776 895.223 197.856C893.399 195.888 891.047 194.904 888.167 194.904C885.287 194.904 882.911 195.888 881.039 197.856C879.215 199.776 878.303 202.368 878.303 205.632C878.303 208.896 879.215 211.512 881.039 213.48C882.911 215.4 885.287 216.36 888.167 216.36ZM954.87 205.776C954.87 205.92 954.798 206.928 954.654 208.8H925.35C925.878 211.2 927.126 213.096 929.094 214.488C931.062 215.88 933.51 216.576 936.438 216.576C938.454 216.576 940.23 216.288 941.766 215.712C943.35 215.088 944.814 214.128 946.158 212.832L952.134 219.312C948.486 223.488 943.158 225.576 936.15 225.576C931.782 225.576 927.918 224.736 924.558 223.056C921.198 221.328 918.606 218.952 916.782 215.928C914.958 212.904 914.046 209.472 914.046 205.632C914.046 201.84 914.934 198.432 916.71 195.408C918.534 192.336 921.006 189.96 924.126 188.28C927.294 186.552 930.822 185.688 934.71 185.688C938.502 185.688 941.934 186.504 945.006 188.136C948.078 189.768 950.478 192.12 952.206 195.192C953.982 198.216 954.87 201.744 954.87 205.776ZM934.782 194.184C932.238 194.184 930.102 194.904 928.374 196.344C926.646 197.784 925.59 199.752 925.206 202.248H944.286C943.902 199.8 942.846 197.856 941.118 196.416C939.39 194.928 937.278 194.184 934.782 194.184ZM973.076 191.376C974.42 189.504 976.22 188.088 978.476 187.128C980.78 186.168 983.42 185.688 986.396 185.688V196.056C985.148 195.96 984.308 195.912 983.876 195.912C980.66 195.912 978.14 196.824 976.316 198.648C974.492 200.424 973.58 203.112 973.58 206.712V225H962.348V186.264H973.076V191.376ZM1032.68 186.264V218.52C1032.68 225.624 1030.84 230.904 1027.14 234.36C1023.44 237.816 1018.04 239.544 1010.94 239.544C1007.2 239.544 1003.64 239.088 1000.28 238.176C996.923 237.264 994.139 235.944 991.931 234.216L996.395 226.152C998.027 227.496 1000.09 228.552 1002.59 229.32C1005.08 230.136 1007.58 230.544 1010.08 230.544C1013.96 230.544 1016.82 229.656 1018.64 227.88C1020.52 226.152 1021.45 223.512 1021.45 219.96V218.304C1018.52 221.52 1014.44 223.128 1009.21 223.128C1005.66 223.128 1002.4 222.36 999.419 220.824C996.491 219.24 994.163 217.032 992.435 214.2C990.707 211.368 989.843 208.104 989.843 204.408C989.843 200.712 990.707 197.448 992.435 194.616C994.163 191.784 996.491 189.6 999.419 188.064C1002.4 186.48 1005.66 185.688 1009.21 185.688C1014.83 185.688 1019.1 187.536 1022.03 191.232V186.264H1032.68ZM1011.44 213.912C1014.42 213.912 1016.84 213.048 1018.72 211.32C1020.64 209.544 1021.6 207.24 1021.6 204.408C1021.6 201.576 1020.64 199.296 1018.72 197.568C1016.84 195.792 1014.42 194.904 1011.44 194.904C1008.47 194.904 1006.02 195.792 1004.1 197.568C1002.18 199.296 1001.22 201.576 1001.22 204.408C1001.22 207.24 1002.18 209.544 1004.1 211.32C1006.02 213.048 1008.47 213.912 1011.44 213.912Z" fill="#FF8942"/>
<path d="M1047.39 225.576C1045.42 225.576 1043.76 224.904 1042.42 223.56C1041.07 222.216 1040.4 220.536 1040.4 218.52C1040.4 216.456 1041.07 214.8 1042.42 213.552C1043.76 212.256 1045.42 211.608 1047.39 211.608C1049.35 211.608 1051.01 212.256 1052.35 213.552C1053.7 214.8 1054.37 216.456 1054.37 218.52C1054.37 220.536 1053.7 222.216 1052.35 223.56C1051.01 224.904 1049.35 225.576 1047.39 225.576ZM1100.94 171.576V225H1090.22V220.536C1087.43 223.896 1083.4 225.576 1078.12 225.576C1074.47 225.576 1071.16 224.76 1068.18 223.128C1065.26 221.496 1062.95 219.168 1061.27 216.144C1059.59 213.12 1058.75 209.616 1058.75 205.632C1058.75 201.648 1059.59 198.144 1061.27 195.12C1062.95 192.096 1065.26 189.768 1068.18 188.136C1071.16 186.504 1074.47 185.688 1078.12 185.688C1083.06 185.688 1086.93 187.248 1089.71 190.368V171.576H1100.94ZM1080.06 216.36C1082.9 216.36 1085.25 215.4 1087.12 213.48C1088.99 211.512 1089.93 208.896 1089.93 205.632C1089.93 202.368 1088.99 199.776 1087.12 197.856C1085.25 195.888 1082.9 194.904 1080.06 194.904C1077.18 194.904 1074.81 195.888 1072.94 197.856C1071.06 199.776 1070.13 202.368 1070.13 205.632C1070.13 208.896 1071.06 211.512 1072.94 213.48C1074.81 215.4 1077.18 216.36 1080.06 216.36ZM1149.28 205.776C1149.28 205.92 1149.21 206.928 1149.07 208.8H1119.76C1120.29 211.2 1121.54 213.096 1123.51 214.488C1125.48 215.88 1127.92 216.576 1130.85 216.576C1132.87 216.576 1134.64 216.288 1136.18 215.712C1137.76 215.088 1139.23 214.128 1140.57 212.832L1146.55 219.312C1142.9 223.488 1137.57 225.576 1130.56 225.576C1126.2 225.576 1122.33 224.736 1118.97 223.056C1115.61 221.328 1113.02 218.952 1111.2 215.928C1109.37 212.904 1108.46 209.472 1108.46 205.632C1108.46 201.84 1109.35 198.432 1111.12 195.408C1112.95 192.336 1115.42 189.96 1118.54 188.28C1121.71 186.552 1125.24 185.688 1129.12 185.688C1132.92 185.688 1136.35 186.504 1139.42 188.136C1142.49 189.768 1144.89 192.12 1146.62 195.192C1148.4 198.216 1149.28 201.744 1149.28 205.776ZM1129.2 194.184C1126.65 194.184 1124.52 194.904 1122.79 196.344C1121.06 197.784 1120 199.752 1119.62 202.248H1138.7C1138.32 199.8 1137.26 197.856 1135.53 196.416C1133.8 194.928 1131.69 194.184 1129.2 194.184Z" fill="#404040"/>
</svg>
