<svg width="270" height="270" viewBox="0 0 270 270" fill="none" xmlns="http://www.w3.org/2000/svg">
<path d="M223.31 40.1648C221.561 38.8494 219.327 38.3633 217.191 38.8329L44.7715 76.7329V76.7329C44.5332 76.7858 44.2836 76.6896 44.149 76.4859C42.2529 73.6179 39.4458 71.4488 36.1764 70.3417L11.5889 62.024C7.66578 60.6972 3.40842 62.8018 2.08183 66.7258C0.755252 70.6499 2.85959 74.9062 6.78268 76.2331L31.3688 84.5491C31.4849 84.5884 31.584 84.6685 31.6474 84.7736L83.1384 170.654C84.1762 172.385 85.4047 173.933 86.7795 175.292C88.1489 176.646 88.9148 178.555 88.5287 180.442L84.6486 199.403C83.5621 204.71 85.268 210.095 89.2116 213.809C89.5431 214.121 89.8857 214.416 90.238 214.695C92.2105 216.255 93.4819 218.726 93.3024 221.234C93.1209 223.769 93.35 226.375 94.0441 228.965C97.4025 241.499 110.332 248.963 122.865 245.605C135.398 242.247 142.863 229.317 139.504 216.784C139.382 216.327 139.246 215.876 139.098 215.433C137.985 212.093 139.414 207.975 142.815 207.064L194.718 193.157C198.119 192.246 201.415 195.097 202.121 198.546C202.214 199.004 202.322 199.462 202.445 199.919C205.804 212.453 218.733 219.917 231.266 216.559C243.799 213.201 251.264 200.271 247.905 187.738C247.278 185.397 246.315 183.234 245.083 181.285C243.885 179.389 243.84 176.933 243.994 174.696C244.05 173.895 243.976 173.072 243.756 172.253C242.684 168.252 238.572 165.877 234.57 166.949L99.9803 203.013C99.8769 203.04 99.7021 203.087 99.4928 202.89C99.2838 202.693 99.3204 202.517 99.3417 202.41L102.689 186.055C103.161 183.747 105.196 182.14 107.513 181.717C108.129 181.605 108.744 181.467 109.357 181.303C110.252 181.063 111.142 180.768 112.024 180.418L210.61 141.166C223.342 136.096 231.305 123.502 230.423 109.824L226.285 45.6754C226.144 43.4925 225.058 41.4802 223.31 40.1648ZM222.966 185.59C227.51 184.372 232.198 187.079 233.415 191.623C234.633 196.168 231.927 200.855 227.382 202.073C222.837 203.29 218.15 200.584 216.933 196.04C215.715 191.495 218.421 186.808 222.966 185.59ZM114.565 214.636C119.109 213.418 123.796 216.124 125.014 220.669C126.232 225.214 123.526 229.901 118.981 231.119C114.436 232.336 109.749 229.63 108.532 225.086C107.314 220.541 110.02 215.854 114.565 214.636ZM73.7378 118.758C71.5815 119.336 69.3034 118.414 68.1554 116.499L56.077 96.3546C54.3199 93.424 55.9545 89.6336 59.2918 88.9L77.8614 84.8181C80.1682 84.311 82.5153 85.4874 83.4896 87.639L92.5708 107.693C93.8438 110.504 92.2911 113.786 89.3101 114.585L73.7378 118.758ZM106.476 166.482C102.564 168.039 98.1628 166.549 96.0017 162.942L81.5258 138.799C79.8176 135.95 81.3112 132.258 84.52 131.398L97.1737 128.007C99.5378 127.374 102.013 128.545 103.023 130.774L115.089 157.421C116.266 160.02 115.034 163.074 112.384 164.129L106.476 166.482ZM146.451 145.813C147.108 148.262 145.827 150.814 143.471 151.752L135.637 154.872C133.155 155.86 130.334 154.723 129.232 152.289L118.389 128.342C117.116 125.531 118.669 122.249 121.649 121.45L133.87 118.176C136.537 117.461 139.279 119.044 139.993 121.711L146.451 145.813ZM133.523 97.5621C134.237 100.229 132.654 102.971 129.987 103.686L113.785 108.027C111.421 108.661 108.945 107.49 107.936 105.26L99.3402 86.2782C98.029 83.3827 99.7171 80.0146 102.822 79.3323L122.536 74.999C125.146 74.4251 127.747 76.0063 128.439 78.5883L133.523 97.5621ZM182.441 131.962C182.844 134.292 181.561 136.587 179.364 137.461L166.858 142.44C164.077 143.548 160.954 141.98 160.179 139.089L154.482 117.828C153.767 115.161 155.35 112.419 158.018 111.704L172.717 107.766C175.556 107.005 178.436 108.845 178.938 111.742L182.441 131.962ZM174.653 87.0079C175.095 89.5567 173.519 92.0214 171.021 92.6909L154.135 97.2154C151.468 97.9301 148.726 96.3472 148.011 93.6799L143.221 75.8029C142.484 73.0495 144.193 70.2374 146.978 69.6254L165.63 65.5252C168.413 64.9134 171.144 66.7475 171.63 69.5551L174.653 87.0079ZM215.453 110.792C215.916 117.964 211.739 124.571 205.061 127.231L203.099 128.012C200.148 129.187 196.865 127.349 196.322 124.22L193.331 106.953C192.89 104.404 194.465 101.939 196.964 101.27L208.644 98.14C211.692 97.3233 214.725 99.499 214.928 102.648L215.453 110.792ZM213.287 77.2044C213.441 79.5829 211.894 81.7389 209.592 82.3558L195.268 86.1938C192.429 86.9546 189.549 85.1139 189.047 82.2177L186.219 65.8894C185.762 63.2544 187.46 60.7266 190.072 60.1525L206.19 56.6095C209.182 55.9518 212.056 58.1144 212.253 61.1711L213.287 77.2044Z" fill="#FFFFFF"/>
</svg>
