<svg width="776" height="209" viewBox="0 0 776 209" fill="none" xmlns="http://www.w3.org/2000/svg">
<path fill-rule="evenodd" clip-rule="evenodd" d="M269.191 0.832958C271.326 0.363321 273.561 0.849446 275.309 2.16485C277.057 3.48025 278.144 5.49251 278.285 7.67545L282.402 71.496H273.64V30.6H264.732L264.253 23.1711C264.056 20.1144 261.182 17.9519 258.19 18.6095L242.072 22.1525C239.46 22.7267 237.762 25.2544 238.219 27.8894L241.047 44.2177C241.473 46.6726 243.607 48.3692 245.976 48.3659V65.5175C245.374 66.5154 245.118 67.7243 245.331 68.9528L245.976 72.6747V97H272.4C269.605 99.5852 266.309 101.693 262.61 103.166L164.024 142.418C163.142 142.768 162.252 143.063 161.357 143.303C160.744 143.467 160.129 143.605 159.513 143.717C157.196 144.14 155.161 145.748 154.689 148.055L151.342 164.41L151.341 164.412C151.32 164.518 151.285 164.694 151.493 164.89C151.702 165.087 151.877 165.04 151.98 165.013L245.976 139.827V155.356L194.815 169.064C191.414 169.975 189.985 174.093 191.098 177.433C191.246 177.876 191.382 178.327 191.504 178.784C194.863 191.317 187.398 204.247 174.865 207.605C162.332 210.963 149.402 203.499 146.044 190.965C145.35 188.375 145.121 185.769 145.302 183.234C145.482 180.726 144.21 178.255 142.238 176.695C141.886 176.416 141.543 176.121 141.212 175.809C137.268 172.095 135.562 166.71 136.649 161.403L140.529 142.442C140.915 140.555 140.149 138.646 138.779 137.292C137.405 135.933 136.176 134.385 135.138 132.654L83.6473 46.7737C83.584 46.6685 83.4849 46.5884 83.3687 46.5491L58.7826 38.2331C54.8595 36.9063 52.7552 32.6499 54.0818 28.7258C55.4084 24.8018 59.6657 22.6972 63.5888 24.024L88.1764 32.3417C91.4457 33.4488 94.2529 35.6179 96.149 38.486C96.2836 38.6896 96.5331 38.7858 96.7714 38.7329L269.191 0.832958ZM264.92 175.905C259.939 172.866 256.071 167.987 254.445 161.919C254.322 161.462 254.214 161.004 254.121 160.546C254.081 160.35 254.032 160.156 253.976 159.965V137.683L268.031 133.917L276.129 147.363C275.742 147.411 275.353 147.486 274.966 147.59C271.825 148.432 269.562 150.931 268.866 153.894L264.92 147.408V175.905ZM272.92 178.971C273.583 179.094 274.253 179.189 274.929 179.255L272.92 175.953V178.971ZM290.381 128.929C289.171 128.616 287.865 128.603 286.57 128.949L276.072 131.762L282.435 142.327L290.381 128.929ZM295.949 135.224C296.014 135.719 296.028 136.212 295.994 136.696C295.84 138.933 295.885 141.389 297.083 143.285C297.939 144.639 298.666 146.097 299.24 147.647L284.936 171.672H279.68L275.074 164.099C276.444 164.45 277.921 164.464 279.382 164.073C283.927 162.855 286.633 158.168 285.415 153.623C285.377 153.479 285.335 153.337 285.289 153.197L295.949 135.224ZM299.774 149.267C299.819 149.423 299.863 149.581 299.905 149.738C301.047 153.998 300.938 158.303 299.805 162.263L299.774 149.267ZM281.989 79.496C281.384 82.8545 280.243 86.0592 278.636 89H257.611C261.841 87.1397 264.998 83.6664 266.505 79.496H281.989ZM265.64 61.6071V38.6H265.248L265.287 39.2044C265.441 41.5829 263.894 43.739 261.592 44.3558L253.976 46.3965V61.9267L260.644 60.14C262.542 59.6316 264.433 60.283 265.64 61.6071ZM177.014 182.669C175.796 178.124 171.109 175.418 166.565 176.636C162.02 177.854 159.314 182.541 160.531 187.086C161.749 191.63 166.436 194.336 170.981 193.119C175.526 191.901 178.232 187.214 177.014 182.669ZM120.155 78.4994C121.303 80.414 123.581 81.3356 125.738 80.7578L141.31 76.5852C144.291 75.7865 145.844 72.5044 144.571 69.6931L135.49 49.639C134.515 47.4874 132.168 46.3111 129.861 46.8181L111.292 50.9C107.954 51.6336 106.32 55.424 108.077 58.3546L120.155 78.4994ZM148.002 124.942C150.163 128.549 154.564 130.039 158.476 128.482L164.384 126.129C167.034 125.074 168.266 122.02 167.089 119.421L155.023 92.7744C154.013 90.5449 151.538 89.3739 149.174 90.0073L136.52 93.3979C133.311 94.2577 131.818 97.9496 133.526 100.799L148.002 124.942ZM195.471 113.752C197.827 112.814 199.108 110.262 198.451 107.813L191.993 83.7113C191.279 81.044 188.537 79.461 185.87 80.1757L173.649 83.4501C170.668 84.2489 169.116 87.5309 170.389 90.3422L181.232 114.289C182.334 116.723 185.155 117.86 187.637 116.872L195.471 113.752ZM181.987 65.6859C184.654 64.9712 186.237 62.2295 185.523 59.5622L180.439 40.5883C179.747 38.0063 177.146 36.4251 174.535 36.999L154.822 41.3323C151.717 42.0147 150.029 45.3827 151.34 48.2782L159.936 67.2602C160.945 69.4898 163.421 70.6607 165.785 70.0273L181.987 65.6859ZM231.364 99.4613C233.56 98.5866 234.844 96.2924 234.441 93.9625L230.938 73.7417C230.436 70.8455 227.556 69.0048 224.717 69.7656L210.017 73.7043C207.35 74.419 205.767 77.1607 206.482 79.828L212.179 101.089C212.953 103.98 216.077 105.548 218.858 104.44L231.364 99.4613ZM223.021 54.691C225.519 54.0214 227.095 51.5567 226.653 49.0079L223.63 31.5551C223.143 28.7475 220.413 26.9134 217.63 27.5252L198.977 31.6254C196.193 32.2374 194.484 35.0495 195.221 37.8029L200.011 55.6799C200.726 58.3472 203.468 59.9301 206.135 59.2154L223.021 54.691Z" fill="#000000"/>
<path d="M63 88L5 88" stroke="#000000" stroke-width="10" stroke-linecap="round"/>
<path d="M94 120.658L10 120.658" stroke="#000000" stroke-width="10" stroke-linecap="round"/>
<path d="M93 153.658L34 153.658" stroke="#000000" stroke-width="10" stroke-linecap="round"/>
<path d="M253.976 38.6H265.64V79.496H290.912V89H253.976V38.6ZM296.637 50.264H307.869V89H296.637V50.264ZM302.253 44.864C300.189 44.864 298.509 44.264 297.213 43.064C295.917 41.864 295.269 40.376 295.269 38.6C295.269 36.824 295.917 35.336 297.213 34.136C298.509 32.936 300.189 32.336 302.253 32.336C304.317 32.336 305.997 32.912 307.293 34.064C308.589 35.216 309.237 36.656 309.237 38.384C309.237 40.256 308.589 41.816 307.293 43.064C305.997 44.264 304.317 44.864 302.253 44.864ZM356.237 69.776C356.237 69.92 356.165 70.928 356.021 72.8H326.717C327.245 75.2 328.493 77.096 330.461 78.488C332.429 79.88 334.877 80.576 337.805 80.576C339.821 80.576 341.597 80.288 343.133 79.712C344.717 79.088 346.181 78.128 347.525 76.832L353.501 83.312C349.853 87.488 344.525 89.576 337.517 89.576C333.149 89.576 329.285 88.736 325.925 87.056C322.565 85.328 319.973 82.952 318.149 79.928C316.325 76.904 315.413 73.472 315.413 69.632C315.413 65.84 316.301 62.432 318.077 59.408C319.901 56.336 322.373 53.96 325.493 52.28C328.661 50.552 332.189 49.688 336.077 49.688C339.869 49.688 343.301 50.504 346.373 52.136C349.445 53.768 351.845 56.12 353.573 59.192C355.349 62.216 356.237 65.744 356.237 69.776ZM336.149 58.184C333.605 58.184 331.469 58.904 329.741 60.344C328.013 61.784 326.957 63.752 326.573 66.248H345.653C345.269 63.8 344.213 61.856 342.485 60.416C340.757 58.928 338.645 58.184 336.149 58.184ZM376.027 51.128H385.963V59.768H376.315V89H365.083V59.768H359.107V51.128H365.083V49.4C365.083 44.984 366.379 41.48 368.971 38.888C371.611 36.296 375.307 35 380.059 35C381.739 35 383.323 35.192 384.811 35.576C386.347 35.912 387.619 36.416 388.627 37.088L385.675 45.224C384.379 44.312 382.867 43.856 381.139 43.856C377.731 43.856 376.027 45.728 376.027 49.472V51.128ZM429.011 69.776C429.011 69.92 428.939 70.928 428.795 72.8H399.491C400.019 75.2 401.267 77.096 403.235 78.488C405.203 79.88 407.651 80.576 410.579 80.576C412.595 80.576 414.371 80.288 415.907 79.712C417.491 79.088 418.955 78.128 420.299 76.832L426.275 83.312C422.627 87.488 417.299 89.576 410.291 89.576C405.923 89.576 402.059 88.736 398.699 87.056C395.339 85.328 392.747 82.952 390.923 79.928C389.099 76.904 388.187 73.472 388.187 69.632C388.187 65.84 389.075 62.432 390.851 59.408C392.675 56.336 395.147 53.96 398.267 52.28C401.435 50.552 404.963 49.688 408.851 49.688C412.643 49.688 416.075 50.504 419.147 52.136C422.219 53.768 424.619 56.12 426.347 59.192C428.123 62.216 429.011 65.744 429.011 69.776ZM408.923 58.184C406.379 58.184 404.243 58.904 402.515 60.344C400.787 61.784 399.731 63.752 399.347 66.248H418.427C418.043 63.8 416.987 61.856 415.259 60.416C413.531 58.928 411.419 58.184 408.923 58.184ZM447.217 55.376C448.561 53.504 450.361 52.088 452.617 51.128C454.921 50.168 457.561 49.688 460.537 49.688V60.056C459.289 59.96 458.449 59.912 458.017 59.912C454.801 59.912 452.281 60.824 450.457 62.648C448.633 64.424 447.721 67.112 447.721 70.712V89H436.489V50.264H447.217V55.376ZM480.388 89.576C477.172 89.576 474.028 89.192 470.956 88.424C467.884 87.608 465.436 86.6 463.612 85.4L467.356 77.336C469.084 78.44 471.172 79.352 473.62 80.072C476.068 80.744 478.468 81.08 480.82 81.08C485.572 81.08 487.948 79.904 487.948 77.552C487.948 76.448 487.3 75.656 486.004 75.176C484.708 74.696 482.716 74.288 480.028 73.952C476.86 73.472 474.244 72.92 472.18 72.296C470.116 71.672 468.316 70.568 466.78 68.984C465.292 67.4 464.548 65.144 464.548 62.216C464.548 59.768 465.244 57.608 466.636 55.736C468.076 53.816 470.14 52.328 472.828 51.272C475.564 50.216 478.78 49.688 482.476 49.688C485.212 49.688 487.924 50 490.612 50.624C493.348 51.2 495.604 52.016 497.38 53.072L493.636 61.064C490.228 59.144 486.508 58.184 482.476 58.184C480.076 58.184 478.276 58.52 477.076 59.192C475.876 59.864 475.276 60.728 475.276 61.784C475.276 62.984 475.924 63.824 477.22 64.304C478.516 64.784 480.58 65.24 483.412 65.672C486.58 66.2 489.172 66.776 491.188 67.4C493.204 67.976 494.956 69.056 496.444 70.64C497.932 72.224 498.676 74.432 498.676 77.264C498.676 79.664 497.956 81.8 496.516 83.672C495.076 85.544 492.964 87.008 490.18 88.064C487.444 89.072 484.18 89.576 480.388 89.576ZM543.55 69.776C543.55 69.92 543.478 70.928 543.334 72.8H514.03C514.558 75.2 515.806 77.096 517.774 78.488C519.742 79.88 522.19 80.576 525.118 80.576C527.134 80.576 528.91 80.288 530.446 79.712C532.03 79.088 533.494 78.128 534.838 76.832L540.814 83.312C537.166 87.488 531.838 89.576 524.83 89.576C520.462 89.576 516.598 88.736 513.238 87.056C509.878 85.328 507.286 82.952 505.462 79.928C503.638 76.904 502.726 73.472 502.726 69.632C502.726 65.84 503.614 62.432 505.39 59.408C507.214 56.336 509.686 53.96 512.806 52.28C515.974 50.552 519.502 49.688 523.39 49.688C527.182 49.688 530.614 50.504 533.686 52.136C536.758 53.768 539.158 56.12 540.886 59.192C542.662 62.216 543.55 65.744 543.55 69.776ZM523.462 58.184C520.918 58.184 518.782 58.904 517.054 60.344C515.326 61.784 514.27 63.752 513.886 66.248H532.966C532.582 63.8 531.526 61.856 529.798 60.416C528.07 58.928 525.958 58.184 523.462 58.184ZM561.756 55.376C563.1 53.504 564.9 52.088 567.156 51.128C569.46 50.168 572.1 49.688 575.076 49.688V60.056C573.828 59.96 572.988 59.912 572.556 59.912C569.34 59.912 566.82 60.824 564.996 62.648C563.172 64.424 562.26 67.112 562.26 70.712V89H551.028V50.264H561.756V55.376ZM621.538 50.264L605.194 89H593.602L577.33 50.264H588.922L599.65 76.616L610.738 50.264H621.538ZM626.122 50.264H637.354V89H626.122V50.264ZM631.738 44.864C629.674 44.864 627.994 44.264 626.698 43.064C625.402 41.864 624.754 40.376 624.754 38.6C624.754 36.824 625.402 35.336 626.698 34.136C627.994 32.936 629.674 32.336 631.738 32.336C633.802 32.336 635.482 32.912 636.778 34.064C638.074 35.216 638.722 36.656 638.722 38.384C638.722 40.256 638.074 41.816 636.778 43.064C635.482 44.264 633.802 44.864 631.738 44.864ZM666.498 89.576C662.37 89.576 658.65 88.736 655.338 87.056C652.074 85.328 649.506 82.952 647.634 79.928C645.81 76.904 644.898 73.472 644.898 69.632C644.898 65.792 645.81 62.36 647.634 59.336C649.506 56.312 652.074 53.96 655.338 52.28C658.65 50.552 662.37 49.688 666.498 49.688C670.578 49.688 674.13 50.552 677.154 52.28C680.226 53.96 682.458 56.384 683.85 59.552L675.138 64.232C673.122 60.68 670.218 58.904 666.426 58.904C663.498 58.904 661.074 59.864 659.154 61.784C657.234 63.704 656.274 66.32 656.274 69.632C656.274 72.944 657.234 75.56 659.154 77.48C661.074 79.4 663.498 80.36 666.426 80.36C670.266 80.36 673.17 78.584 675.138 75.032L683.85 79.784C682.458 82.856 680.226 85.256 677.154 86.984C674.13 88.712 670.578 89.576 666.498 89.576ZM727.769 69.776C727.769 69.92 727.697 70.928 727.553 72.8H698.249C698.777 75.2 700.025 77.096 701.993 78.488C703.961 79.88 706.409 80.576 709.337 80.576C711.353 80.576 713.129 80.288 714.665 79.712C716.249 79.088 717.713 78.128 719.057 76.832L725.033 83.312C721.385 87.488 716.057 89.576 709.049 89.576C704.681 89.576 700.817 88.736 697.457 87.056C694.097 85.328 691.505 82.952 689.681 79.928C687.857 76.904 686.945 73.472 686.945 69.632C686.945 65.84 687.833 62.432 689.609 59.408C691.433 56.336 693.905 53.96 697.025 52.28C700.193 50.552 703.721 49.688 707.609 49.688C711.401 49.688 714.833 50.504 717.905 52.136C720.977 53.768 723.377 56.12 725.105 59.192C726.881 62.216 727.769 65.744 727.769 69.776ZM707.681 58.184C705.137 58.184 703.001 58.904 701.273 60.344C699.545 61.784 698.489 63.752 698.105 66.248H717.185C716.801 63.8 715.745 61.856 714.017 60.416C712.289 58.928 710.177 58.184 707.681 58.184ZM299.84 177L299.768 146.76L284.936 171.672H279.68L264.92 147.408V177H253.976V126.6H263.624L282.488 157.92L301.064 126.6H310.64L310.784 177H299.84ZM337.574 137.688C343.574 137.688 348.182 139.128 351.398 142.008C354.614 144.84 356.222 149.136 356.222 154.896V177H345.71V172.176C343.598 175.776 339.662 177.576 333.902 177.576C330.926 177.576 328.334 177.072 326.126 176.064C323.966 175.056 322.31 173.664 321.158 171.888C320.006 170.112 319.43 168.096 319.43 165.84C319.43 162.24 320.774 159.408 323.462 157.344C326.198 155.28 330.398 154.248 336.062 154.248H344.99C344.99 151.8 344.246 149.928 342.758 148.632C341.27 147.288 339.038 146.616 336.062 146.616C333.998 146.616 331.958 146.952 329.942 147.624C327.974 148.248 326.294 149.112 324.902 150.216L320.87 142.368C322.982 140.88 325.502 139.728 328.43 138.912C331.406 138.096 334.454 137.688 337.574 137.688ZM336.71 170.016C338.63 170.016 340.334 169.584 341.822 168.72C343.31 167.808 344.366 166.488 344.99 164.76V160.8H337.286C332.678 160.8 330.374 162.312 330.374 165.336C330.374 166.776 330.926 167.928 332.03 168.792C333.182 169.608 334.742 170.016 336.71 170.016ZM377.115 143.376C378.459 141.504 380.259 140.088 382.515 139.128C384.819 138.168 387.459 137.688 390.435 137.688V148.056C389.187 147.96 388.347 147.912 387.915 147.912C384.699 147.912 382.179 148.824 380.355 150.648C378.531 152.424 377.619 155.112 377.619 158.712V177H366.387V138.264H377.115V143.376ZM413.746 161.808L408.346 167.136V177H397.114V123.576H408.346V153.816L424.762 138.264H438.154L422.026 154.68L439.594 177H425.986L413.746 161.808ZM461.277 161.808L455.877 167.136V177H444.645V123.576H455.877V153.816L472.293 138.264H485.685L469.557 154.68L487.125 177H473.517L461.277 161.808ZM492.176 123.576H503.408V177H492.176V123.576ZM551.776 157.776C551.776 157.92 551.704 158.928 551.56 160.8H522.256C522.784 163.2 524.032 165.096 526 166.488C527.968 167.88 530.416 168.576 533.344 168.576C535.36 168.576 537.136 168.288 538.672 167.712C540.256 167.088 541.72 166.128 543.064 164.832L549.04 171.312C545.392 175.488 540.064 177.576 533.056 177.576C528.688 177.576 524.824 176.736 521.464 175.056C518.104 173.328 515.512 170.952 513.688 167.928C511.864 164.904 510.952 161.472 510.952 157.632C510.952 153.84 511.84 150.432 513.616 147.408C515.44 144.336 517.912 141.96 521.032 140.28C524.2 138.552 527.728 137.688 531.616 137.688C535.408 137.688 538.84 138.504 541.912 140.136C544.984 141.768 547.384 144.12 549.112 147.192C550.888 150.216 551.776 153.744 551.776 157.776ZM531.688 146.184C529.144 146.184 527.008 146.904 525.28 148.344C523.552 149.784 522.496 151.752 522.112 154.248H541.192C540.808 151.8 539.752 149.856 538.024 148.416C536.296 146.928 534.184 146.184 531.688 146.184ZM597.198 157.776C597.198 157.92 597.126 158.928 596.982 160.8H567.678C568.206 163.2 569.454 165.096 571.422 166.488C573.39 167.88 575.838 168.576 578.766 168.576C580.782 168.576 582.558 168.288 584.094 167.712C585.678 167.088 587.142 166.128 588.486 164.832L594.462 171.312C590.814 175.488 585.486 177.576 578.478 177.576C574.11 177.576 570.246 176.736 566.886 175.056C563.526 173.328 560.934 170.952 559.11 167.928C557.286 164.904 556.374 161.472 556.374 157.632C556.374 153.84 557.262 150.432 559.038 147.408C560.862 144.336 563.334 141.96 566.454 140.28C569.622 138.552 573.15 137.688 577.038 137.688C580.83 137.688 584.262 138.504 587.334 140.136C590.406 141.768 592.806 144.12 594.534 147.192C596.31 150.216 597.198 153.744 597.198 157.776ZM577.11 146.184C574.566 146.184 572.43 146.904 570.702 148.344C568.974 149.784 567.918 151.752 567.534 154.248H586.614C586.23 151.8 585.174 149.856 583.446 148.416C581.718 146.928 579.606 146.184 577.11 146.184ZM627.572 137.688C631.172 137.688 634.436 138.528 637.364 140.208C640.34 141.84 642.668 144.168 644.348 147.192C646.028 150.168 646.868 153.648 646.868 157.632C646.868 161.616 646.028 165.12 644.348 168.144C642.668 171.12 640.34 173.448 637.364 175.128C634.436 176.76 631.172 177.576 627.572 177.576C622.244 177.576 618.188 175.896 615.404 172.536V177H604.676V123.576H615.908V142.368C618.74 139.248 622.628 137.688 627.572 137.688ZM625.628 168.36C628.508 168.36 630.86 167.4 632.684 165.48C634.556 163.512 635.492 160.896 635.492 157.632C635.492 154.368 634.556 151.776 632.684 149.856C630.86 147.888 628.508 146.904 625.628 146.904C622.748 146.904 620.372 147.888 618.5 149.856C616.676 151.776 615.764 154.368 615.764 157.632C615.764 160.896 616.676 163.512 618.5 165.48C620.372 167.4 622.748 168.36 625.628 168.36ZM692.331 157.776C692.331 157.92 692.259 158.928 692.115 160.8H662.811C663.339 163.2 664.587 165.096 666.555 166.488C668.523 167.88 670.971 168.576 673.899 168.576C675.915 168.576 677.691 168.288 679.227 167.712C680.811 167.088 682.275 166.128 683.619 164.832L689.595 171.312C685.947 175.488 680.619 177.576 673.611 177.576C669.243 177.576 665.379 176.736 662.019 175.056C658.659 173.328 656.067 170.952 654.243 167.928C652.419 164.904 651.507 161.472 651.507 157.632C651.507 153.84 652.395 150.432 654.171 147.408C655.995 144.336 658.467 141.96 661.587 140.28C664.755 138.552 668.283 137.688 672.171 137.688C675.963 137.688 679.395 138.504 682.467 140.136C685.539 141.768 687.939 144.12 689.667 147.192C691.443 150.216 692.331 153.744 692.331 157.776ZM672.243 146.184C669.699 146.184 667.563 146.904 665.835 148.344C664.107 149.784 663.051 151.752 662.667 154.248H681.747C681.363 151.8 680.307 149.856 678.579 148.416C676.851 146.928 674.739 146.184 672.243 146.184ZM710.537 143.376C711.881 141.504 713.681 140.088 715.937 139.128C718.241 138.168 720.881 137.688 723.857 137.688V148.056C722.609 147.96 721.769 147.912 721.337 147.912C718.121 147.912 715.601 148.824 713.777 150.648C711.953 152.424 711.041 155.112 711.041 158.712V177H699.809V138.264H710.537V143.376ZM770.144 138.264V170.52C770.144 177.624 768.296 182.904 764.6 186.36C760.904 189.816 755.504 191.544 748.4 191.544C744.656 191.544 741.104 191.088 737.744 190.176C734.384 189.264 731.6 187.944 729.392 186.216L733.856 178.152C735.488 179.496 737.552 180.552 740.048 181.32C742.544 182.136 745.04 182.544 747.536 182.544C751.424 182.544 754.28 181.656 756.104 179.88C757.976 178.152 758.912 175.512 758.912 171.96V170.304C755.984 173.52 751.904 175.128 746.672 175.128C743.12 175.128 739.856 174.36 736.88 172.824C733.952 171.24 731.624 169.032 729.896 166.2C728.168 163.368 727.304 160.104 727.304 156.408C727.304 152.712 728.168 149.448 729.896 146.616C731.624 143.784 733.952 141.6 736.88 140.064C739.856 138.48 743.12 137.688 746.672 137.688C752.288 137.688 756.56 139.536 759.488 143.232V138.264H770.144ZM748.904 165.912C751.88 165.912 754.304 165.048 756.176 163.32C758.096 161.544 759.056 159.24 759.056 156.408C759.056 153.576 758.096 151.296 756.176 149.568C754.304 147.792 751.88 146.904 748.904 146.904C745.928 146.904 743.48 147.792 741.56 149.568C739.64 151.296 738.68 153.576 738.68 156.408C738.68 159.24 739.64 161.544 741.56 163.32C743.48 165.048 745.928 165.912 748.904 165.912Z" fill="#000000"/>
</svg>
